# xmcd
#
# Track frame offsets: 
#        187
#        16955
#        35302
#        55387
#        69562
#        84697
#        100615
#        128897
#        142305
#        161380
#        181712
#
# Disc length: 2643 seconds
#
# Revision: 1
# Processed by: cddbd v1.5.2PL0 Copyright (c) Steve Scherf et al.
# Submitted via: ExactAudioCopy v0.99pb3
#
DISCID=8e0a510b
DTITLE=Frank Frost With Freddie and The Screamers - Deep Blues [Appaloos
DTITLE=a]
DYEAR=1992
DGENRE=Blues
TTITLE0=Nothin' I Wouldn't Do for You
TTITLE1=Sweet Woman
TTITLE2=Born to Be Wise
TTITLE3=Pocket Full of Shells
TTITLE4=My Baby
TTITLE5=Ride With Your Daddy Tonight
TTITLE6=Repo Man Blues
TTITLE7=Pocket Full of Money
TTITLE8=Janie on My Mind
TTITLE9=mebody Tell Me
TTITLE10=Deep Blues
EXTD=YEAR: 1998
EXTT0=
EXTT1=
EXTT2=
EXTT3=
EXTT4=
EXTT5=
EXTT6=
EXTT7=
EXTT8=
EXTT9=
EXTT10=
PLAYORDER=
